<?xml version="1.0" encoding="utf-8"?>
<!-- Generator: Adobe Illustrator 16.0.4, SVG Export Plug-In . SVG Version: 6.00 Build 0)  -->
<!DOCTYPE svg PUBLIC "-//W3C//DTD SVG 1.1//EN" "http://www.w3.org/Graphics/SVG/1.1/DTD/svg11.dtd">
<svg version="1.1" id="Layer_1" xmlns="http://www.w3.org/2000/svg" xmlns:xlink="http://www.w3.org/1999/xlink" x="0px" y="0px"
	 width="95.953px" height="95.998px" viewBox="0 0 95.953 95.998" enable-background="new 0 0 95.953 95.998" xml:space="preserve">
<g>
	<path d="M95.953,47.998c0,26.531-21.469,48-48,48C21.469,95.998,0,74.529,0,47.998C0,21.514,21.469,0,47.953,0
		C74.484,0,95.953,21.514,95.953,47.998z M60,86.998c16.5-5.438,28.453-20.812,28.453-39c0-22.359-18.141-40.498-40.5-40.498
		C25.641,7.5,7.5,25.639,7.5,47.998c0,18.188,12,33.609,28.547,39v-7.641c-11.812,2.672-14.297-5.531-14.297-5.531
		c-1.875-4.828-4.594-6.094-4.594-6.094c-3.797-2.578,0.281-2.531,0.281-2.531c4.172,0.281,6.375,4.266,6.375,4.266
		c3.938,6.75,10.453,4.312,12.469,3.328c0.609-2.953,2.906-3.562,3.656-3.797c-10.641-1.125-22.031-4.969-22.031-23.391
		c0-5.156,1.828-9.375,4.828-12.656c-0.469-1.219-2.109-6,0.469-12.516c0,0,3.984-1.264,12.984,4.828
		c3.75-1.031,7.781-1.547,11.812-1.594c3.984,0.047,8.016,0.562,11.812,1.594c9-6.092,12.938-4.828,12.938-4.828
		c2.578,6.516,0.984,11.297,0.469,12.516c3.047,3.281,4.875,7.5,4.875,12.656c0,18.422-11.391,22.219-22.031,23.344
		C57.984,70.264,60,72.748,60,77.482V86.998z"/>
</g>
</svg>
